<svg width="213" height="92" viewBox="0 0 213 92" fill="none" xmlns="http://www.w3.org/2000/svg">
<g filter="url(#filter0_d)">
<path d="M114.35 43.49V35.21C114.35 34.99 114.43 34.8 114.59 34.64C114.75 34.48 114.94 34.4 115.16 34.4H120.89C121.11 34.4 121.3 34.48 121.46 34.64C121.62 34.8 121.7 34.99 121.7 35.21V43.28C121.7 44.38 122.2 44.93 123.2 44.93C124.2 44.93 124.7 44.38 124.7 43.28V35.21C124.7 34.99 124.78 34.8 124.94 34.64C125.1 34.48 125.29 34.4 125.51 34.4H131.21C131.43 34.4 131.62 34.48 131.78 34.64C131.94 34.8 132.02 34.99 132.02 35.21V49.19C132.02 49.41 131.94 49.6 131.78 49.76C131.62 49.92 131.43 50 131.21 50H125.96C125.74 50 125.55 49.92 125.39 49.76C125.23 49.6 125.15 49.41 125.15 49.19V48.2C124.21 49.6 122.55 50.3 120.17 50.3C118.53 50.3 117.15 49.73 116.03 48.59C114.91 47.43 114.35 45.73 114.35 43.49ZM152.678 40.91V49.19C152.678 49.41 152.598 49.6 152.438 49.76C152.278 49.92 152.088 50 151.868 50H146.138C145.918 50 145.728 49.92 145.568 49.76C145.408 49.6 145.328 49.41 145.328 49.19V41.12C145.328 40.02 144.828 39.47 143.828 39.47C142.828 39.47 142.328 40.02 142.328 41.12V49.19C142.328 49.41 142.248 49.6 142.088 49.76C141.928 49.92 141.738 50 141.518 50H135.818C135.598 50 135.408 49.92 135.248 49.76C135.088 49.6 135.008 49.41 135.008 49.19V35.21C135.008 34.99 135.088 34.8 135.248 34.64C135.408 34.48 135.598 34.4 135.818 34.4H141.068C141.288 34.4 141.478 34.48 141.638 34.64C141.798 34.8 141.878 34.99 141.878 35.21V36.2C142.398 35.58 143.098 35.08 143.978 34.7C144.878 34.3 145.838 34.1 146.858 34.1C148.498 34.1 149.878 34.68 150.998 35.84C152.118 36.98 152.678 38.67 152.678 40.91ZM155.066 43.37V41C155.066 38.76 155.666 37.05 156.866 35.87C158.066 34.69 159.526 34.1 161.246 34.1C162.986 34.1 164.376 34.57 165.416 35.51V29.51C165.416 29.29 165.496 29.1 165.656 28.94C165.816 28.78 166.006 28.7 166.226 28.7H171.776C171.996 28.7 172.186 28.78 172.346 28.94C172.506 29.1 172.586 29.29 172.586 29.51V49.19C172.586 49.41 172.506 49.6 172.346 49.76C172.186 49.92 171.996 50 171.776 50H166.676C166.456 50 166.266 49.92 166.106 49.76C165.946 49.6 165.866 49.41 165.866 49.19V48.29C164.826 49.63 163.356 50.3 161.456 50.3C159.556 50.3 158.016 49.74 156.836 48.62C155.656 47.48 155.066 45.73 155.066 43.37ZM165.416 43.19V40.97C165.356 39.97 164.856 39.47 163.916 39.47C162.916 39.47 162.416 40.05 162.416 41.21V43.19C162.416 44.35 162.916 44.93 163.916 44.93C164.916 44.93 165.416 44.35 165.416 43.19ZM175.134 43.22V41.18C175.134 38.9 175.944 37.15 177.564 35.93C179.184 34.71 181.274 34.1 183.834 34.1C186.394 34.1 188.484 34.71 190.104 35.93C191.724 37.15 192.534 38.9 192.534 41.18V43.22C192.534 45.52 191.754 47.28 190.194 48.5C188.634 49.7 186.514 50.3 183.834 50.3C181.154 50.3 179.034 49.7 177.474 48.5C175.914 47.28 175.134 45.52 175.134 43.22ZM185.184 43.46V40.94C185.184 40.18 185.084 39.65 184.884 39.35C184.684 39.05 184.334 38.9 183.834 38.9C183.334 38.9 182.984 39.05 182.784 39.35C182.584 39.65 182.484 40.18 182.484 40.94V43.46C182.484 44.26 182.584 44.8 182.784 45.08C182.984 45.36 183.334 45.5 183.834 45.5C184.334 45.5 184.684 45.35 184.884 45.05C185.084 44.75 185.184 44.22 185.184 43.46Z" fill="#19427C"/>
</g>
<g filter="url(#filter1_d)">
<path d="M58.02 68.03V70.4C58.02 72.64 57.42 74.35 56.22 75.53C55.02 76.71 53.55 77.3 51.81 77.3C50.09 77.3 48.71 76.83 47.67 75.89V81.89C47.67 82.11 47.59 82.3 47.43 82.46C47.27 82.62 47.08 82.7 46.86 82.7H41.31C41.09 82.7 40.9 82.62 40.74 82.46C40.58 82.3 40.5 82.11 40.5 81.89V62.21C40.5 61.99 40.58 61.8 40.74 61.64C40.9 61.48 41.09 61.4 41.31 61.4H46.41C46.63 61.4 46.82 61.48 46.98 61.64C47.14 61.8 47.22 61.99 47.22 62.21V63.11C48.26 61.77 49.73 61.1 51.63 61.1C53.53 61.1 55.07 61.67 56.25 62.81C57.43 63.93 58.02 65.67 58.02 68.03ZM47.67 68.21V70.43C47.73 71.43 48.23 71.93 49.17 71.93C50.17 71.93 50.67 71.35 50.67 70.19V68.21C50.67 67.05 50.17 66.47 49.17 66.47C48.17 66.47 47.67 67.05 47.67 68.21ZM60.1184 72.53C60.1184 69.83 62.3084 68.1 66.6884 67.34L69.8684 66.83C69.8684 66.23 69.8184 65.83 69.7184 65.63C69.6184 65.41 69.3784 65.3 68.9984 65.3C68.6384 65.3 68.2784 65.46 67.9184 65.78C67.5584 66.1 67.2184 66.26 66.8984 66.26H61.7984C61.3584 66.26 61.1384 66.05 61.1384 65.63C61.1384 65.19 61.2884 64.73 61.5884 64.25C61.9084 63.75 62.3584 63.26 62.9384 62.78C63.5384 62.3 64.3684 61.9 65.4284 61.58C66.5084 61.26 67.7084 61.1 69.0284 61.1C71.7084 61.1 73.7184 61.66 75.0584 62.78C76.3984 63.9 77.0684 65.5 77.0684 67.58V76.19C77.0684 76.41 76.9884 76.6 76.8284 76.76C76.6684 76.92 76.4784 77 76.2584 77H71.0084C70.7884 77 70.5984 76.92 70.4384 76.76C70.2784 76.6 70.1984 76.41 70.1984 76.19V75.35C69.2584 76.65 67.8884 77.3 66.0884 77.3C64.2884 77.3 62.8384 76.85 61.7384 75.95C60.6584 75.03 60.1184 73.89 60.1184 72.53ZM68.0084 72.86C69.3084 72.86 69.9584 72.08 69.9584 70.52L68.1884 70.91C67.3084 71.11 66.8684 71.48 66.8684 72.02C66.8684 72.26 66.9684 72.46 67.1684 72.62C67.3684 72.78 67.6484 72.86 68.0084 72.86ZM86.4743 62.21V63.26C87.8743 62.02 89.4343 61.4 91.1543 61.4H92.5943C92.8143 61.4 93.0043 61.48 93.1643 61.64C93.3243 61.8 93.4043 61.99 93.4043 62.21V66.89C93.4043 67.11 93.3243 67.3 93.1643 67.46C93.0043 67.62 92.8143 67.7 92.5943 67.7H88.7243C88.1843 67.7 87.7543 67.83 87.4343 68.09C87.1343 68.33 86.9643 68.66 86.9243 69.08V76.19C86.9243 76.41 86.8443 76.6 86.6843 76.76C86.5243 76.92 86.3343 77 86.1143 77H80.4143C80.1943 77 80.0043 76.92 79.8443 76.76C79.6843 76.6 79.6043 76.41 79.6043 76.19V62.21C79.6043 61.99 79.6843 61.8 79.8443 61.64C80.0043 61.48 80.1943 61.4 80.4143 61.4H85.6643C85.8843 61.4 86.0743 61.48 86.2343 61.64C86.3943 61.8 86.4743 61.99 86.4743 62.21ZM106.343 77H101.543C101.123 77 100.793 76.75 100.553 76.25L94.7925 62.36C94.7725 62.3 94.7625 62.2 94.7625 62.06C94.7625 61.92 94.8325 61.78 94.9725 61.64C95.1125 61.5 95.2825 61.43 95.4825 61.43H100.553C101.033 61.43 101.363 61.67 101.543 62.15L103.943 69.11L106.343 62.12C106.523 61.64 106.853 61.4 107.333 61.4H112.403C112.603 61.4 112.773 61.47 112.913 61.61C113.053 61.75 113.123 61.89 113.123 62.03C113.123 62.17 113.113 62.27 113.093 62.33L107.333 76.25C107.093 76.75 106.763 77 106.343 77ZM114.911 70.49V62.21C114.911 61.99 114.991 61.8 115.151 61.64C115.311 61.48 115.501 61.4 115.721 61.4H121.451C121.671 61.4 121.861 61.48 122.021 61.64C122.181 61.8 122.261 61.99 122.261 62.21V70.28C122.261 71.38 122.761 71.93 123.761 71.93C124.761 71.93 125.261 71.38 125.261 70.28V62.21C125.261 61.99 125.341 61.8 125.501 61.64C125.661 61.48 125.851 61.4 126.071 61.4H131.771C131.991 61.4 132.181 61.48 132.341 61.64C132.501 61.8 132.581 61.99 132.581 62.21V76.19C132.581 76.41 132.501 76.6 132.341 76.76C132.181 76.92 131.991 77 131.771 77H126.521C126.301 77 126.111 76.92 125.951 76.76C125.791 76.6 125.711 76.41 125.711 76.19V75.2C124.771 76.6 123.111 77.3 120.731 77.3C119.091 77.3 117.711 76.73 116.591 75.59C115.471 74.43 114.911 72.73 114.911 70.49ZM141.748 77H136.378C136.158 77 135.968 76.92 135.808 76.76C135.648 76.6 135.568 76.41 135.568 76.19V56.51C135.568 56.29 135.648 56.1 135.808 55.94C135.968 55.78 136.158 55.7 136.378 55.7H141.748C141.968 55.7 142.158 55.78 142.318 55.94C142.478 56.1 142.558 56.29 142.558 56.51V76.19C142.558 76.41 142.478 76.6 142.318 76.76C142.158 76.92 141.968 77 141.748 77ZM145.109 72.53C145.109 69.83 147.299 68.1 151.679 67.34L154.859 66.83C154.859 66.23 154.809 65.83 154.709 65.63C154.609 65.41 154.369 65.3 153.989 65.3C153.629 65.3 153.269 65.46 152.909 65.78C152.549 66.1 152.209 66.26 151.889 66.26H146.789C146.349 66.26 146.129 66.05 146.129 65.63C146.129 65.19 146.279 64.73 146.579 64.25C146.899 63.75 147.349 63.26 147.929 62.78C148.529 62.3 149.359 61.9 150.419 61.58C151.499 61.26 152.699 61.1 154.019 61.1C156.699 61.1 158.709 61.66 160.049 62.78C161.389 63.9 162.059 65.5 162.059 67.58V76.19C162.059 76.41 161.979 76.6 161.819 76.76C161.659 76.92 161.469 77 161.249 77H155.999C155.779 77 155.589 76.92 155.429 76.76C155.269 76.6 155.189 76.41 155.189 76.19V75.35C154.249 76.65 152.879 77.3 151.079 77.3C149.279 77.3 147.829 76.85 146.729 75.95C145.649 75.03 145.109 73.89 145.109 72.53ZM152.999 72.86C154.299 72.86 154.949 72.08 154.949 70.52L153.179 70.91C152.299 71.11 151.859 71.48 151.859 72.02C151.859 72.26 151.959 72.46 152.159 72.62C152.359 72.78 152.639 72.86 152.999 72.86ZM171.465 62.21V63.26C172.865 62.02 174.425 61.4 176.145 61.4H177.585C177.805 61.4 177.995 61.48 178.155 61.64C178.315 61.8 178.395 61.99 178.395 62.21V66.89C178.395 67.11 178.315 67.3 178.155 67.46C177.995 67.62 177.805 67.7 177.585 67.7H173.715C173.175 67.7 172.745 67.83 172.425 68.09C172.125 68.33 171.955 68.66 171.915 69.08V76.19C171.915 76.41 171.835 76.6 171.675 76.76C171.515 76.92 171.325 77 171.105 77H165.405C165.185 77 164.995 76.92 164.835 76.76C164.675 76.6 164.595 76.41 164.595 76.19V62.21C164.595 61.99 164.675 61.8 164.835 61.64C164.995 61.48 165.185 61.4 165.405 61.4H170.655C170.875 61.4 171.065 61.48 171.225 61.64C171.385 61.8 171.465 61.99 171.465 62.21ZM186.983 77H181.613C181.393 77 181.203 76.92 181.043 76.76C180.883 76.6 180.803 76.41 180.803 76.19V62.21C180.803 61.99 180.883 61.8 181.043 61.64C181.203 61.48 181.393 61.4 181.613 61.4H186.983C187.203 61.4 187.393 61.48 187.553 61.64C187.713 61.8 187.793 61.99 187.793 62.21V76.19C187.793 76.41 187.713 76.6 187.553 76.76C187.393 76.92 187.203 77 186.983 77ZM187.643 55.61V59.24C187.643 59.46 187.563 59.65 187.403 59.81C187.243 59.97 187.053 60.05 186.833 60.05H181.763C181.543 60.05 181.353 59.97 181.193 59.81C181.033 59.65 180.953 59.46 180.953 59.24V55.61C180.953 55.39 181.033 55.2 181.193 55.04C181.353 54.88 181.543 54.8 181.763 54.8H186.833C187.053 54.8 187.243 54.88 187.403 55.04C187.563 55.2 187.643 55.39 187.643 55.61ZM190.343 72.53C190.343 69.83 192.533 68.1 196.913 67.34L200.093 66.83C200.093 66.23 200.043 65.83 199.943 65.63C199.843 65.41 199.603 65.3 199.223 65.3C198.863 65.3 198.503 65.46 198.143 65.78C197.783 66.1 197.443 66.26 197.123 66.26H192.023C191.583 66.26 191.363 66.05 191.363 65.63C191.363 65.19 191.513 64.73 191.813 64.25C192.133 63.75 192.583 63.26 193.163 62.78C193.763 62.3 194.593 61.9 195.653 61.58C196.733 61.26 197.933 61.1 199.253 61.1C201.933 61.1 203.943 61.66 205.283 62.78C206.623 63.9 207.293 65.5 207.293 67.58V76.19C207.293 76.41 207.213 76.6 207.053 76.76C206.893 76.92 206.703 77 206.483 77H201.233C201.013 77 200.823 76.92 200.663 76.76C200.503 76.6 200.423 76.41 200.423 76.19V75.35C199.483 76.65 198.113 77.3 196.313 77.3C194.513 77.3 193.063 76.85 191.963 75.95C190.883 75.03 190.343 73.89 190.343 72.53ZM198.233 72.86C199.533 72.86 200.183 72.08 200.183 70.52L198.413 70.91C197.533 71.11 197.093 71.48 197.093 72.02C197.093 72.26 197.193 72.46 197.393 72.62C197.593 72.78 197.873 72.86 198.233 72.86Z" fill="#19427C"/>
</g>
<g filter="url(#filter2_d)">
<path d="M96.65 32.45C96.1167 32.45 95.65 32.65 95.25 33.05C94.8833 33.45 94.7 34.05 94.7 34.85V48.65C94.7 49.0167 94.5667 49.3333 94.3 49.6C94.0333 49.8667 93.7167 50 93.35 50H84.55C84.1833 50 83.8667 49.8667 83.6 49.6C83.3333 49.3333 83.2 49.0167 83.2 48.65V35.2C83.2 33.3667 82.5333 32.45 81.2 32.45C80.6333 32.45 80.15 32.6667 79.75 33.1C79.3833 33.5 79.2 34.0667 79.2 34.8V48.65C79.2 49.0167 79.0667 49.3333 78.8 49.6C78.5333 49.8667 78.2167 50 77.85 50H68.85C68.4833 50 68.1667 49.8667 67.9 49.6C67.6333 49.3333 67.5 49.0167 67.5 48.65V25.35C67.5 24.9833 67.6333 24.6667 67.9 24.4C68.1667 24.1333 68.4833 24 68.85 24H77.1C77.4667 24 77.7833 24.1333 78.05 24.4C78.3167 24.6667 78.45 24.9833 78.45 25.35V27C79.1167 26.1333 80.0667 25.35 81.3 24.65C82.6667 23.8833 84.2 23.5 85.9 23.5C89.5667 23.5 92.0333 24.8667 93.3 27.6C94.1 26.4333 95.2 25.4667 96.6 24.7C98 23.9 99.45 23.5 100.95 23.5C103.65 23.5 105.85 24.45 107.55 26.35C109.283 28.25 110.15 31.0833 110.15 34.85V48.65C110.15 49.0167 110.017 49.3333 109.75 49.6C109.483 49.8667 109.167 50 108.8 50H100C99.6333 50 99.3167 49.8667 99.05 49.6C98.7833 49.3333 98.65 49.0167 98.65 48.65V35.2C98.65 33.3667 97.9833 32.45 96.65 32.45Z" fill="#19427C"/>
</g>
<g filter="url(#filter3_d)">
<path d="M36.8458 49.3677V80.8921C36.8458 82.3263 35.7948 83.4903 34.4998 83.4903C33.2048 83.4903 32.1538 82.3263 32.1538 80.8921V49.3677C32.1538 47.9335 33.2048 46.7695 34.4998 46.7695C35.7948 46.7695 36.8458 47.9335 36.8458 49.3677Z" fill="#704C55"/>
<path d="M36.7761 49.6944V80.0786C36.7761 81.4609 35.5525 82.5828 34.0448 82.5828V47.1902C35.5525 47.1902 36.7761 48.3121 36.7761 49.6944Z" fill="#5B362A"/>
<path d="M45.5432 38.1003L36.7989 33.9395L26.9426 59.9488L45.5432 41.4084C46.4581 40.4948 46.4581 39.0139 45.5432 38.1003V38.1003Z" fill="#6AA9FF"/>
<path d="M45.5432 19.3931C44.6267 18.4811 43.1409 18.4811 42.2244 19.3931L38.0454 28.1184L64.1438 37.9335L45.5432 19.3931Z" fill="#FABE2C"/>
<path d="M64.9977 39.7543V58.4616C64.9977 60.5521 62.4609 61.5779 60.9923 60.1156L36.1592 35.3612C35.2318 34.4368 35.2576 32.9535 36.1592 32.0547L38.0454 28.1184C41.8146 27.8284 46.7177 29.0257 52.6953 31.7055C56.6541 33.4796 61.0053 35.8888 64.1438 37.9335C64.2013 38.0144 64.9977 38.5965 64.9977 39.7543V39.7543Z" fill="#FED843"/>
<path d="M23.4565 19.393C22.5415 20.3066 22.5415 21.7876 23.4565 22.7011C24.2916 23.532 30.7165 28.7061 32.5433 28.9259C32.5639 28.865 32.0221 30.4635 42.057 0.8526L23.4565 19.393Z" fill="#59C36A"/>
<path d="M64.3111 3.99386L39.4764 28.7467C39.0182 29.2034 38.4176 29.4326 37.8171 29.4326C30.5983 28.7397 33.0714 28.9911 32.5433 28.9259C31.4688 24.854 32.6684 19.0314 36.117 11.5906C37.8683 7.81014 40.1623 3.74037 42.057 0.852599C42.1382 0.79523 42.7222 0.00141907 43.8838 0.00141907H62.6517C64.7381 0.00141907 65.7844 2.52378 64.3111 3.99386V3.99386Z" fill="#97DE3D"/>
<path d="M4.85587 22.8679L23.4565 41.4084C24.373 42.3203 25.8588 42.3203 26.7753 41.4084C27.5979 40.5884 34.1776 33.715 34.8314 31.6712L4.85587 22.8679Z" fill="#FF435B"/>
<path d="M34.8325 31.6712C33.4327 32.3743 31.7608 32.7251 29.8214 32.7251C26.2336 32.7251 21.7325 31.5231 16.3617 29.1208C10.284 26.4036 5.27142 23.1392 5.06185 23.002L4.85696 22.8679C4.79941 22.787 4.00302 22.2049 4.00302 21.0471V2.33983C4.00302 0.258647 6.53513 -0.781164 8.00841 0.687355L32.8415 25.4402L33.4265 27.1441L34.8137 31.1802C34.906 31.2722 34.9076 31.4405 34.8325 31.6712V31.6712Z" fill="#FF7B4A"/>
<path d="M32.6011 49.8126C30.8931 53.4142 28.7213 57.238 26.9426 59.9488C26.8614 60.0062 26.2776 60.8 25.1158 60.8H6.3479C4.25997 60.8 3.21679 58.2761 4.68851 56.8076L29.5232 32.0547C30.4356 31.1453 31.9256 31.1401 32.8404 32.0547L36.7989 33.9395C37.1101 37.9475 35.7025 43.2729 32.6011 49.8126V49.8126Z" fill="#7ED8F6"/>
<path d="M34.4998 23.3855C30.6195 23.3855 27.4618 26.533 27.4618 30.4007C27.4618 34.2684 30.6195 37.4159 34.4998 37.4159C38.3801 37.4159 41.5378 34.2684 41.5378 30.4007C41.5378 26.533 38.3801 23.3855 34.4998 23.3855Z" fill="#EFFFCC"/>
<path d="M41.5378 30.4007C41.5378 34.2684 38.3801 37.4159 34.4998 37.4159V23.3855C38.3801 23.3855 41.5378 26.533 41.5378 30.4007Z" fill="#D3F3C2"/>
</g>
<defs>
<filter id="filter0_d" x="110.35" y="28.7" width="86.184" height="29.6" filterUnits="userSpaceOnUse" color-interpolation-filters="sRGB">
<feFlood flood-opacity="0" result="BackgroundImageFix"/>
<feColorMatrix in="SourceAlpha" type="matrix" values="0 0 0 0 0 0 0 0 0 0 0 0 0 0 0 0 0 0 127 0"/>
<feOffset dy="4"/>
<feGaussianBlur stdDeviation="2"/>
<feColorMatrix type="matrix" values="0 0 0 0 0 0 0 0 0 0 0 0 0 0 0 0 0 0 0.25 0"/>
<feBlend mode="normal" in2="BackgroundImageFix" result="effect1_dropShadow"/>
<feBlend mode="normal" in="SourceGraphic" in2="effect1_dropShadow" result="shape"/>
</filter>
<filter id="filter1_d" x="36.5" y="54.8" width="174.793" height="35.9" filterUnits="userSpaceOnUse" color-interpolation-filters="sRGB">
<feFlood flood-opacity="0" result="BackgroundImageFix"/>
<feColorMatrix in="SourceAlpha" type="matrix" values="0 0 0 0 0 0 0 0 0 0 0 0 0 0 0 0 0 0 127 0"/>
<feOffset dy="4"/>
<feGaussianBlur stdDeviation="2"/>
<feColorMatrix type="matrix" values="0 0 0 0 0 0 0 0 0 0 0 0 0 0 0 0 0 0 0.25 0"/>
<feBlend mode="normal" in2="BackgroundImageFix" result="effect1_dropShadow"/>
<feBlend mode="normal" in="SourceGraphic" in2="effect1_dropShadow" result="shape"/>
</filter>
<filter id="filter2_d" x="63.5" y="23.5" width="50.65" height="34.5" filterUnits="userSpaceOnUse" color-interpolation-filters="sRGB">
<feFlood flood-opacity="0" result="BackgroundImageFix"/>
<feColorMatrix in="SourceAlpha" type="matrix" values="0 0 0 0 0 0 0 0 0 0 0 0 0 0 0 0 0 0 127 0"/>
<feOffset dy="4"/>
<feGaussianBlur stdDeviation="2"/>
<feColorMatrix type="matrix" values="0 0 0 0 0 0 0 0 0 0 0 0 0 0 0 0 0 0 0.25 0"/>
<feBlend mode="normal" in2="BackgroundImageFix" result="effect1_dropShadow"/>
<feBlend mode="normal" in="SourceGraphic" in2="effect1_dropShadow" result="shape"/>
</filter>
<filter id="filter3_d" x="0" y="0" width="69" height="91.4903" filterUnits="userSpaceOnUse" color-interpolation-filters="sRGB">
<feFlood flood-opacity="0" result="BackgroundImageFix"/>
<feColorMatrix in="SourceAlpha" type="matrix" values="0 0 0 0 0 0 0 0 0 0 0 0 0 0 0 0 0 0 127 0"/>
<feOffset dy="4"/>
<feGaussianBlur stdDeviation="2"/>
<feColorMatrix type="matrix" values="0 0 0 0 0 0 0 0 0 0 0 0 0 0 0 0 0 0 0.25 0"/>
<feBlend mode="normal" in2="BackgroundImageFix" result="effect1_dropShadow"/>
<feBlend mode="normal" in="SourceGraphic" in2="effect1_dropShadow" result="shape"/>
</filter>
</defs>
</svg>
